<?xml version="1.0" encoding="UTF-8"?>
<svg width="100px" height="100px" viewBox="0 0 100 100" version="1.1" xmlns="http://www.w3.org/2000/svg" xmlns:xlink="http://www.w3.org/1999/xlink">
    <!-- Generator: Sketch 52.1 (67048) - http://www.bohemiancoding.com/sketch -->
    <title>Artboard</title>
    <desc>Created with Sketch.</desc>
    <g id="Artboard" stroke="none" stroke-width="1" fill="none" fill-rule="evenodd">
        <g id="outline-develop" transform="translate(0.000000, 10.000000)" fill="#000000" fill-rule="nonzero">
            <path d="M90,0 L10,0 C4.5,0 0.05,4.5 0.05,10 L0,70 C0,75.5 4.5,80 10,80 L90,80 C95.5,80 100,75.5 100,70 L100,10 C100,4.5 95.5,0 90,0 Z M10,25 L62.5,25 L62.5,42.5 L10,42.5 L10,25 Z M10,52.5 L62.5,52.5 L62.5,70 L10,70 L10,52.5 Z M90,70 L72.5,70 L72.5,25 L90,25 L90,70 Z" id="Shape"></path>
        </g>
    </g>
</svg>