<?xml version="1.0" encoding="UTF-8"?>
<svg width="100px" height="100px" viewBox="0 0 100 100" version="1.1" xmlns="http://www.w3.org/2000/svg" xmlns:xlink="http://www.w3.org/1999/xlink">
    <!-- Generator: Sketch 52.1 (67048) - http://www.bohemiancoding.com/sketch -->
    <title>linkedin</title>
    <desc>Created with Sketch.</desc>
    <g id="linkedin" stroke="none" stroke-width="1" fill="none" fill-rule="evenodd">
        <g id="if_11-linkedin_104493-(1)" transform="translate(1.000000, 3.000000)">
            <path d="M54.8291317,40.4229692 L54.8291317,40.2072829 C54.7843137,40.280112 54.7366947,40.3529412 54.6890756,40.4229692 L54.8291317,40.4229692 Z" id="Path" fill="#F9F9F9"></path>
            <path d="M22.3473389,94.2128852 L1.43697479,94.2128852 L1.43697479,31.302521 L22.3473389,31.302521 L22.3473389,94.2128852 Z M11.8935574,22.7086835 L11.7535014,22.7086835 C4.7394958,22.7086835 0.201680672,17.8767507 0.201680672,11.8403361 C0.201680672,5.66946779 4.87955182,0.971988796 12.0308123,0.971988796 C19.1848739,0.971988796 23.5854342,5.66946779 23.7254902,11.8403361 C23.7254902,17.8767507 19.1820728,22.7086835 11.8935574,22.7086835 Z M97.7507003,94.2128852 L76.8403361,94.2128852 L76.8403361,60.5490196 C76.8403361,52.0952381 73.8151261,46.32493 66.2492997,46.32493 C60.4733894,46.32493 57.0336134,50.2156863 55.5182073,53.9747899 C54.9663866,55.3165266 54.8319328,57.1932773 54.8319328,59.0756303 L54.8319328,94.210084 L33.9215686,94.210084 C33.9215686,94.210084 34.1960784,37.1960784 33.9215686,31.2997199 L54.8319328,31.2997199 L54.8319328,40.2044818 C57.6106443,35.9187675 62.5798319,29.8151261 73.6806723,29.8151261 C87.4369748,29.8151261 97.7535014,38.8095238 97.7535014,58.1344538 L97.7535014,94.2128852 L97.7507003,94.2128852 Z" id="Shape" fill="#FFFFFF" fill-rule="nonzero"></path>
        </g>
    </g>
</svg>