<?xml version="1.0" encoding="UTF-8"?>
<svg width="100px" height="100px" viewBox="0 0 100 100" version="1.1" xmlns="http://www.w3.org/2000/svg" xmlns:xlink="http://www.w3.org/1999/xlink">
    <!-- Generator: Sketch 52.1 (67048) - http://www.bohemiancoding.com/sketch -->
    <title>twitter</title>
    <desc>Created with Sketch.</desc>
    <g id="twitter" stroke="none" stroke-width="1" fill="none" fill-rule="evenodd">
        <g id="if_03-twitter_104501" transform="translate(0.000000, 10.000000)" fill="#FFFFFF">
            <path d="M100,9.55552238 C96.323813,11.1786909 92.3674969,12.2735735 88.2163084,12.7635486 C92.4547835,10.2431006 95.7046871,6.25071099 97.2372775,1.48807249 C93.2728417,3.82503186 88.8841524,5.52078926 84.2092443,6.43621596 C80.4680998,2.4760881 75.1354972,0 69.2345168,0 C57.9055275,0 48.7201348,9.12402169 48.7201348,20.3793342 C48.7201348,21.9742737 48.9007978,23.528886 49.2519741,25.0230076 C32.2006374,24.1721043 17.0817855,16.0602945 6.96262915,3.73026301 C5.19659785,6.73866972 4.18569718,10.2390679 4.18569718,13.9773963 C4.18569718,21.0467488 7.8070763,27.2853617 13.3122222,30.9390031 C9.95067292,30.8321361 6.78602602,29.914693 4.01924365,28.3883097 C4.01721373,28.4729967 4.01721373,28.5597002 4.01721373,28.6464036 C4.01721373,38.5184942 11.0894586,46.7533019 20.4758135,48.6285152 C18.7544405,49.0922776 16.941721,49.342306 15.0701338,49.342306 C13.7466253,49.342306 12.4616852,49.2152754 11.209224,48.9753288 C13.8217323,57.0710077 21.3973976,62.9648233 30.3737085,63.1281483 C23.3522116,68.5944959 14.5078456,71.852931 4.89413962,71.852931 C3.23975397,71.852931 1.60566754,71.7561458 0,71.5666081 C9.08186672,77.3515403 19.8648073,80.7228916 31.4495666,80.7228916 C69.1878286,80.7228916 89.8219759,49.6709724 89.8219759,22.7404899 C89.8219759,21.8573249 89.8037066,20.9761763 89.7651381,20.1010767 C93.7722023,17.2338151 97.2514869,13.6426808 100,9.55552238 Z" id="Path"></path>
        </g>
    </g>
</svg>